<svg width="25" height="24" viewBox="0 0 25 24" fill="none" xmlns="http://www.w3.org/2000/svg">
<path d="M22.1047 6.75V17.25C22.1047 17.8467 21.8668 18.419 21.4433 18.841C21.0198 19.2629 20.4455 19.5 19.8466 19.5H4.79296C4.19409 19.5 3.61974 19.2629 3.19628 18.841C2.77281 18.419 2.53491 17.8467 2.53491 17.25V6.75M22.1047 6.75C22.1047 6.15326 21.8668 5.58097 21.4433 5.15901C21.0198 4.73705 20.4455 4.5 19.8466 4.5H4.79296C4.19409 4.5 3.61974 4.73705 3.19628 5.15901C2.77281 5.58097 2.53491 6.15326 2.53491 6.75M22.1047 6.75V6.993C22.1047 7.37715 22.006 7.75491 21.8181 8.0903C21.6301 8.42569 21.3591 8.70754 21.0308 8.909L13.504 13.524C13.1479 13.7425 12.738 13.8582 12.3198 13.8582C11.9016 13.8582 11.4916 13.7425 11.1356 13.524L3.60874 8.91C3.28049 8.70854 3.00947 8.42669 2.8215 8.0913C2.63353 7.75591 2.53487 7.37815 2.53491 6.994V6.75" stroke="#FF5C00" stroke-width="1.5" stroke-linecap="round" stroke-linejoin="round"/>
</svg>
