<svg width="30" height="27" viewBox="0 0 30 27" fill="none" xmlns="http://www.w3.org/2000/svg">
<path d="M18.456 11.8125C18.456 12.7076 18.0727 13.5661 17.3904 14.199C16.7082 14.8319 15.7829 15.1875 14.818 15.1875C13.8532 15.1875 12.9278 14.8319 12.2456 14.199C11.5633 13.5661 11.1801 12.7076 11.1801 11.8125C11.1801 10.9174 11.5633 10.0589 12.2456 9.42601C12.9278 8.79308 13.8532 8.4375 14.818 8.4375C15.7829 8.4375 16.7082 8.79308 17.3904 9.42601C18.0727 10.0589 18.456 10.9174 18.456 11.8125V11.8125Z" stroke="#FF5C00" stroke-width="1.5" stroke-linecap="round" stroke-linejoin="round"/>
<path d="M23.9128 11.8125C23.9128 19.8473 14.8179 24.4688 14.8179 24.4688C14.8179 24.4688 5.72302 19.8473 5.72302 11.8125C5.72302 9.57474 6.68123 7.42862 8.38686 5.84629C10.0925 4.26395 12.4058 3.375 14.8179 3.375C17.2301 3.375 19.5434 4.26395 21.249 5.84629C22.9546 7.42862 23.9128 9.57474 23.9128 11.8125V11.8125Z" stroke="#FF5C00" stroke-width="1.5" stroke-linecap="round" stroke-linejoin="round"/>
</svg>
