<svg width="25" height="24" viewBox="0 0 25 24" fill="none" xmlns="http://www.w3.org/2000/svg">
<path d="M14.5778 9.75V5.25M14.5778 9.75H19.0939M14.5778 9.75L20.5993 3.75M17.5886 21.75C9.27493 21.75 2.53491 15.034 2.53491 6.75V4.5C2.53491 3.90326 2.77281 3.33097 3.19628 2.90901C3.61974 2.48705 4.19409 2.25 4.79296 2.25H6.16987C6.68771 2.25 7.13932 2.601 7.26477 3.102L8.37472 7.525C8.48512 7.965 8.32053 8.427 7.95623 8.698L6.65861 9.668C6.47288 9.80198 6.33546 9.99207 6.26676 10.21C6.19805 10.428 6.20173 10.6623 6.27725 10.878C6.88127 12.5151 7.83521 14.0018 9.07299 15.2352C10.3108 16.4686 11.8028 17.4191 13.4458 18.021C13.8884 18.183 14.3771 18.017 14.6601 17.641L15.6336 16.348C15.7668 16.1708 15.9496 16.0366 16.159 15.9625C16.3684 15.8883 16.5952 15.8773 16.8108 15.931L21.2496 17.037C21.7514 17.162 22.1047 17.612 22.1047 18.128V19.5C22.1047 20.0967 21.8668 20.669 21.4433 21.091C21.0198 21.5129 20.4455 21.75 19.8466 21.75H17.5886V21.75Z" stroke="#FF5C00" stroke-width="1.5" stroke-linecap="round" stroke-linejoin="round"/>
</svg>
