<svg width="43" height="41" viewBox="0 0 43 41" fill="none" xmlns="http://www.w3.org/2000/svg">
<path d="M35.6264 2.97769L34.7541 3.71048L32.6328 1.18532C31.5644 -0.0864897 29.6596 -0.25204 28.3878 0.816365L26.8348 2.12098L26.1248 1.27582C25.0564 0.00401366 23.1517 -0.161539 21.8799 0.906866L20.1673 2.34554C18.8955 3.41395 18.73 5.31868 19.7984 6.59049L24.5599 12.2585L12.8526 22.0935L8.09101 16.4255C7.02261 15.1537 5.11787 14.9881 3.84607 16.0565L2.1335 17.4952C0.86169 18.5636 0.696138 20.4683 1.76454 21.7401L3.0842 23.311L1.53176 24.6152C0.259955 25.6836 0.0944036 27.5883 1.16281 28.8601L2.93345 30.9679L2.06061 31.7011C0.83123 32.733 0.700418 34.6085 1.76882 35.8803L3.19245 37.575C4.26086 38.8468 6.13085 39.0415 7.35977 38.0091L8.23207 37.2763L10.3534 39.8015C11.4218 41.0733 13.3265 41.2389 14.5983 40.1705L16.1508 38.8663L16.8608 39.7115C17.9292 40.9833 19.8339 41.1488 21.1057 40.0804L22.8183 38.6417C24.0901 37.5733 24.2556 35.6686 23.1872 34.3968L18.1667 28.4204L29.874 18.5854L34.8946 24.5618C35.963 25.8336 37.8677 25.9992 39.1395 24.9308L40.8521 23.4921C42.1239 22.4237 42.2895 20.5189 41.2211 19.2471L39.9014 17.6762L41.4544 16.3716C42.7262 15.3032 42.8917 13.3985 41.8233 12.1267L40.0531 10.0195L40.9254 9.2867C42.1549 8.25386 42.2852 6.37877 41.2168 5.10696L39.7931 3.4123C38.7258 2.13958 36.8558 1.94485 35.6264 2.97769ZM6.21978 36.6521C5.73885 37.0561 4.98952 36.9588 4.54948 36.435L3.12585 34.7403C2.68581 34.2165 2.71922 33.4616 3.20015 33.0576L4.07245 32.3248L7.09207 35.9193L6.21978 36.6521ZM13.4589 38.813C12.9351 39.253 12.151 39.1849 11.711 38.661L2.51938 27.7196C2.07934 27.1958 2.14749 26.4117 2.6713 25.9717L4.22374 24.6675L15.0109 37.5083L13.4589 38.813ZM21.8307 35.5363C22.2708 36.0601 22.2026 36.8442 21.6788 37.2842L19.9662 38.7229C19.4424 39.163 18.6584 39.0948 18.2183 38.571L10.6699 29.5856L3.12157 20.6001C2.68153 20.0763 2.74968 19.2923 3.27349 18.8522L4.98606 17.4135C5.50988 16.9735 6.29394 17.0417 6.73398 17.5655L21.8307 35.5363ZM17.0272 27.0629L13.9925 23.4505L19.8462 18.533L25.6999 13.6156L28.7346 17.228L17.0272 27.0629ZM39.8646 20.3867C40.3046 20.9105 40.2365 21.6946 39.7126 22.1346L38.0001 23.5733C37.4763 24.0133 36.6922 23.9452 36.2522 23.4213L21.1554 5.45049C20.7154 4.92668 20.7835 4.14261 21.3073 3.70257L23.0199 2.26389C23.5437 1.82386 24.3278 1.892 24.7678 2.41582L39.8646 20.3867ZM40.4668 13.2662C40.9069 13.79 40.8387 14.5741 40.3149 15.0141L38.7619 16.3188L27.9748 3.47801L29.5278 2.17339C30.0516 1.73335 30.8357 1.8015 31.2757 2.32532L40.4668 13.2662ZM39.8608 6.24605C40.3009 6.76986 40.2675 7.52475 39.7865 7.92876L38.9142 8.66155L35.8946 5.06705L36.7669 4.33426C37.2478 3.93025 37.9972 4.02758 38.4372 4.55139L39.8608 6.24605Z" fill="black"/>
<path d="M17.0272 27.0629L13.9925 23.4505L19.8462 18.533L25.6999 13.6156L28.7346 17.228L17.0272 27.0629Z" fill="black"/>
<path d="M39.8608 6.24605C40.3009 6.76986 40.2675 7.52475 39.7865 7.92876L38.9142 8.66155L35.8946 5.06705L36.7669 4.33426C37.2478 3.93025 37.9972 4.02758 38.4372 4.55139L39.8608 6.24605Z" fill="white"/>
<path d="M6.21978 36.6521C5.73885 37.0561 4.98952 36.9588 4.54948 36.435L3.12585 34.7403C2.68581 34.2165 2.71922 33.4616 3.20015 33.0576L4.07245 32.3248L7.09207 35.9193L6.21978 36.6521Z" fill="white"/>
<path d="M21.8307 35.5363C22.2708 36.0601 22.2026 36.8442 21.6788 37.2842L19.9662 38.7229C19.4424 39.163 18.6584 39.0948 18.2183 38.571L10.6699 29.5856L3.12157 20.6001C2.68153 20.0763 2.74968 19.2923 3.27349 18.8522L4.98606 17.4135C5.50988 16.9735 6.29394 17.0417 6.73398 17.5655L21.8307 35.5363Z" fill="#FF5C00"/>
<path d="M13.4589 38.813C12.9351 39.253 12.151 39.1849 11.711 38.661L2.51938 27.7196C2.07934 27.1958 2.14749 26.4117 2.6713 25.9717L4.22374 24.6675L15.0109 37.5083L13.4589 38.813Z" fill="#FF5C00"/>
<path d="M39.8646 20.3867C40.3046 20.9105 40.2365 21.6946 39.7126 22.1346L38.0001 23.5733C37.4763 24.0133 36.6922 23.9452 36.2522 23.4213L21.1554 5.45049C20.7154 4.92668 20.7835 4.14261 21.3073 3.70257L23.0199 2.26389C23.5437 1.82386 24.3278 1.892 24.7678 2.41582L39.8646 20.3867Z" fill="#FF5C00"/>
<path d="M40.4668 13.2662C40.9069 13.79 40.8387 14.5741 40.3149 15.0141L38.7619 16.3188L27.9748 3.47801L29.5278 2.17339C30.0516 1.73335 30.8357 1.8015 31.2757 2.32532L40.4668 13.2662Z" fill="#FF5C00"/>
</svg>
