<svg width="43" height="41" viewBox="0 0 43 41" fill="none" xmlns="http://www.w3.org/2000/svg">
<path d="M35.6265 2.97769L34.7542 3.71048L32.6329 1.18532C31.5645 -0.0864903 29.6597 -0.25204 28.3879 0.816365L26.8349 2.12098L26.125 1.27582C25.0566 0.00401315 23.1518 -0.161539 21.88 0.906866L20.1674 2.34554C18.8956 3.41395 18.7301 5.31868 19.7985 6.59049L24.56 12.2585L12.8527 22.0935L8.09113 16.4255C7.02273 15.1537 5.118 14.9881 3.84619 16.0565L2.13362 17.4952C0.861812 18.5636 0.69626 20.4683 1.76467 21.7401L3.08433 23.311L1.53188 24.6152C0.260077 25.6836 0.0945257 27.5883 1.16293 28.8601L2.93357 30.9679L2.06073 31.7011C0.831352 32.733 0.70054 34.6085 1.76895 35.8803L3.19257 37.575C4.26098 38.8468 6.13097 39.0415 7.3599 38.0091L8.23219 37.2763L10.3535 39.8015C11.4219 41.0733 13.3266 41.2389 14.5984 40.1705L16.1509 38.8663L16.8609 39.7115C17.9293 40.9833 19.834 41.1488 21.1058 40.0804L22.8184 38.6417C24.0902 37.5733 24.2557 35.6686 23.1873 34.3968L18.1668 28.4204L29.8742 18.5854L34.8947 24.5618C35.9631 25.8336 37.8678 25.9992 39.1396 24.9308L40.8522 23.4921C42.124 22.4237 42.2896 20.5189 41.2212 19.2471L39.9015 17.6762L41.4545 16.3716C42.7263 15.3032 42.8919 13.3985 41.8234 12.1267L40.0533 10.0195L40.9256 9.2867C42.155 8.25386 42.2853 6.37877 41.2169 5.10696L39.7933 3.4123C38.7259 2.13958 36.8559 1.94485 35.6265 2.97769ZM6.2199 36.6521C5.73897 37.0561 4.98964 36.9588 4.5496 36.435L3.12597 34.7403C2.68594 34.2165 2.71934 33.4616 3.20027 33.0576L4.07257 32.3248L7.0922 35.9193L6.2199 36.6521ZM13.459 38.813C12.9352 39.253 12.1511 39.1849 11.7111 38.661L2.5195 27.7196C2.07946 27.1958 2.14761 26.4117 2.67143 25.9717L4.22387 24.6675L15.011 37.5083L13.459 38.813ZM21.8309 35.5363C22.2709 36.0601 22.2027 36.8442 21.6789 37.2842L19.9664 38.7229C19.4426 39.163 18.6585 39.0948 18.2184 38.571L10.6701 29.5856L3.12169 20.6001C2.68165 20.0763 2.7498 19.2923 3.27362 18.8522L4.98619 17.4135C5.51 16.9735 6.29406 17.0417 6.7341 17.5655L21.8309 35.5363ZM17.0273 27.0629L13.9927 23.4505L19.8463 18.533L25.7 13.6156L28.7347 17.228L17.0273 27.0629ZM39.8647 20.3867C40.3047 20.9105 40.2366 21.6946 39.7128 22.1346L38.0002 23.5733C37.4764 24.0133 36.6923 23.9452 36.2523 23.4213L21.1555 5.45049C20.7155 4.92667 20.7836 4.14261 21.3074 3.70257L23.02 2.26389C23.5438 1.82386 24.3279 1.892 24.7679 2.41582L39.8647 20.3867ZM40.467 13.2662C40.907 13.79 40.8389 14.5741 40.315 15.0141L38.7621 16.3188L27.9749 3.47801L29.5279 2.17339C30.0517 1.73335 30.8358 1.8015 31.2758 2.32532L40.467 13.2662ZM39.8609 6.24605C40.301 6.76986 40.2676 7.52474 39.7866 7.92876L38.9143 8.66155L35.8947 5.06705L36.767 4.33426C37.2479 3.93025 37.9973 4.02758 38.4373 4.55139L39.8609 6.24605Z" fill="black"/>
<path d="M17.0273 27.0629L13.9927 23.4505L19.8463 18.533L25.7 13.6156L28.7347 17.228L17.0273 27.0629Z" fill="#FF5C00"/>
<path d="M39.8609 6.24605C40.301 6.76986 40.2676 7.52474 39.7866 7.92876L38.9143 8.66155L35.8947 5.06705L36.767 4.33426C37.2479 3.93025 37.9973 4.02758 38.4373 4.55139L39.8609 6.24605Z" fill="white"/>
<path d="M6.2199 36.6521C5.73897 37.0561 4.98964 36.9588 4.5496 36.435L3.12597 34.7403C2.68594 34.2165 2.71934 33.4616 3.20027 33.0576L4.07257 32.3248L7.0922 35.9193L6.2199 36.6521Z" fill="white"/>
<path d="M21.8309 35.5363C22.2709 36.0601 22.2027 36.8442 21.6789 37.2842L19.9664 38.7229C19.4426 39.163 18.6585 39.0948 18.2184 38.571L10.6701 29.5856L3.12169 20.6001C2.68165 20.0763 2.7498 19.2923 3.27362 18.8522L4.98619 17.4135C5.51 16.9735 6.29406 17.0417 6.7341 17.5655L21.8309 35.5363Z" fill="black"/>
<path d="M13.459 38.813C12.9352 39.253 12.1511 39.1849 11.7111 38.661L2.5195 27.7196C2.07946 27.1958 2.14761 26.4117 2.67143 25.9717L4.22387 24.6675L15.011 37.5083L13.459 38.813Z" fill="black"/>
<path d="M39.8647 20.3867C40.3047 20.9105 40.2366 21.6946 39.7128 22.1346L38.0002 23.5733C37.4764 24.0133 36.6923 23.9452 36.2523 23.4213L21.1555 5.45049C20.7155 4.92667 20.7836 4.14261 21.3074 3.70257L23.02 2.26389C23.5438 1.82386 24.3279 1.892 24.7679 2.41582L39.8647 20.3867Z" fill="black"/>
<path d="M40.467 13.2662C40.907 13.79 40.8389 14.5741 40.315 15.0141L38.7621 16.3188L27.9749 3.47801L29.5279 2.17339C30.0517 1.73335 30.8358 1.8015 31.2758 2.32532L40.467 13.2662Z" fill="black"/>
</svg>
